<?xml version="1.0" encoding="UTF-8"?>
<svg class="jfi-full-logo" id="Layer_1" data-name="Layer 1" xmlns="http://www.w3.org/2000/svg" viewBox="0 0 247.46 154.93"><defs></defs><title>Jain Family Institute</title><path class="cls-1" d="M32.11.71V30.59c0,10.87-6.19,16.34-15.84,16.34S.43,41.25,0,30.44l5.9-.36c.51,7.35,4,11.74,10.52,11.74,6.41,0,9.5-3.74,9.5-11.38V.71Z"></path><path class="cls-1" d="M65,39.88a2.21,2.21,0,0,0,2.45,2.45,6,6,0,0,0,2.73-.72v3.24a6.14,6.14,0,0,1-4.82,1.87c-3.24,0-5.55-2.45-5.91-6.19-1.73,3.67-6.19,6.4-11.3,6.4C42,46.93,38,43.62,38,38.22c0-6,5.11-8.42,12.67-9.94l8.5-1.72V25.33c0-4.32-2.52-7-6.92-7s-7,2.66-7.92,6.33L39,24c1.23-5.9,5.91-10.22,13.33-10.22,7.92,0,12.6,4,12.6,12Zm-5.76-9.36L52.13,32c-5,1.08-8.14,2-8.14,5.83,0,2.67,1.8,4.68,5.4,4.68,5.55,0,9.8-4.17,9.8-10.51Z"></path><path class="cls-1" d="M77.76,0l4.38,4.38L77.76,8.76,73.38,4.38Zm3,14.6V46.07h-6V14.6Z"></path><path class="cls-1" d="M94.9,46.07h-6V14.6h6v5.62c1.51-3.82,5.76-6.48,10.44-6.48,8.21,0,11.52,5.47,11.52,12.82V46.07h-6v-19c0-5.26-2.52-8.57-7.49-8.57-4.75,0-8.49,3.75-8.49,9.51Z"></path><path class="cls-1" d="M3.53,100.07V54.71h31v5.18H9.72v15H29.16v5.18H9.72v19.95Z"></path><path class="cls-1" d="M62.14,93.88a2.21,2.21,0,0,0,2.45,2.45,6,6,0,0,0,2.73-.72v3.24a6.12,6.12,0,0,1-4.82,1.87c-3.24,0-5.55-2.45-5.91-6.19-1.72,3.67-6.19,6.4-11.3,6.4-6.12,0-10.08-3.31-10.08-8.71,0-6,5.11-8.42,12.67-9.94l8.5-1.72V79.33c0-4.32-2.52-7-6.91-7s-7,2.66-7.93,6.33L36.22,78c1.22-5.9,5.9-10.22,13.32-10.22,7.92,0,12.6,4,12.6,12Zm-5.76-9.36L49.32,86c-5,1.08-8.14,2-8.14,5.83,0,2.67,1.8,4.68,5.4,4.68,5.55,0,9.8-4.17,9.8-10.51Z"></path><path class="cls-1" d="M108.87,67.74c8.21,0,11.09,5.69,11.09,12.82v19.51h-6v-19c0-5.26-2.16-8.57-7-8.57-4.47,0-8.07,3.75-8.07,9.51v18.07H93v-19c0-5.26-2.16-8.57-7-8.57-4.46,0-8,3.75-8,9.51v18.07H72V68.6h6v5.62a10.38,10.38,0,0,1,10-6.48c5.61,0,8.92,2.74,10.29,6.84A11.33,11.33,0,0,1,108.87,67.74Z"></path><path class="cls-1" d="M130.75,54l4.38,4.38-4.38,4.38-4.38-4.38Zm3,14.6v31.47h-6V68.6Z"></path><path class="cls-1" d="M147.89,54.71v45.36h-6V54.71Z"></path><path class="cls-1" d="M160.56,112.17,165.67,100,152.42,68.6h6.27l10,24.2H169l9.65-24.2h5.91l-18.15,43.57Z"></path><path class="cls-1" d="M42.26,154.07h-6V122.6h6v5.62c1.52-3.82,5.76-6.48,10.45-6.48,8.2,0,11.52,5.47,11.52,12.82v19.51h-6v-19c0-5.26-2.52-8.57-7.49-8.57-4.75,0-8.5,3.75-8.5,9.51Z"></path><path class="cls-1" d="M74.73,143.12c.58,4.83,4,7.42,9.37,7.42,4.17,0,7.27-1.51,7.27-4.68,0-3-2.09-4-6-4.68l-5.33-.94c-5.9-.93-9.43-3.45-9.43-8.85,0-5.76,4.82-9.65,12.1-9.65,8.35,0,13.25,3.89,13.82,11.16l-4.82.29c-.72-4.83-3.67-7.06-9-7.06-4,0-6.56,1.8-6.56,4.68,0,2.52,1.59,3.82,4.83,4.39l5.9.94C93.24,137.22,97,139.6,97,145.29c0,6.26-5.54,9.64-12.88,9.64-7.85,0-13.83-3.67-14.41-11.45Z"></path><path class="cls-1" d="M104.25,126.92H99.5v-3.24l2-.36c3-.57,3.6-2,4.32-5l.93-4.39h3.39v8.71H119v4.32h-8.86V146c0,2.81,1.15,4.11,3.89,4.11a12.63,12.63,0,0,0,5.9-1.87v4a12.34,12.34,0,0,1-8.06,2.66c-4.47,0-7.64-2.08-7.64-8.2Z"></path><path class="cls-1" d="M128.16,108l4.38,4.38-4.38,4.38-4.38-4.38Zm3,14.6v31.47h-6V122.6Z"></path><path class="cls-1" d="M140.4,126.92h-4.75v-3.24l2-.36c3-.57,3.6-2,4.32-5l.94-4.39h3.38v8.71h8.86v4.32H146.3V146c0,2.81,1.16,4.11,3.89,4.11a12.63,12.63,0,0,0,5.91-1.87v4a12.36,12.36,0,0,1-8.07,2.66c-4.46,0-7.63-2.08-7.63-8.2Z"></path><path class="cls-1" d="M182.52,122.6h6v31.47h-6v-5.54a10.92,10.92,0,0,1-10.3,6.4c-8.21,0-11.23-5.4-11.23-12.74V122.6h6v19c0,5.26,2.3,8.64,7.27,8.64,4.68,0,8.28-3.74,8.28-9.57Z"></path><path class="cls-1" d="M197.78,126.92H193v-3.24l2-.36c2.95-.57,3.6-2,4.32-5l.93-4.39h3.39v8.71h8.85v4.32h-8.85V146c0,2.81,1.15,4.11,3.88,4.11a12.63,12.63,0,0,0,5.91-1.87v4a12.36,12.36,0,0,1-8.07,2.66c-4.46,0-7.63-2.08-7.63-8.2Z"></path><path class="cls-1" d="M247.32,143.48c-1.58,7.13-6.84,11.45-14.69,11.45-9.36,0-16.2-6.33-16.2-16.13s6.84-17.06,15.91-17.06c10,0,15.12,7.13,15.12,15.7v2.37H222.41c.28,6.12,4.68,10.44,10.29,10.44,5.26,0,8.36-2.52,9.65-7.34Zm-6-7.56c-.21-5-3-9.64-9-9.64-5.69,0-9.07,4.46-9.79,9.64Z"></path><polygon class="cls-1" points="30.59 113.89 30.59 108.71 20.19 108.71 13.93 108.71 3.53 108.71 3.53 113.89 13.93 113.89 13.93 148.89 3.53 148.89 3.53 154.07 13.93 154.07 20.19 154.07 30.59 154.07 30.59 148.89 20.19 148.89 20.19 113.89 30.59 113.89"></polygon></svg>